<?xml version="1.0" encoding="UTF-8" standalone="no"?>
<!DOCTYPE svg PUBLIC "-//W3C//DTD SVG 1.1//EN"
 "http://www.w3.org/Graphics/SVG/1.1/DTD/svg11.dtd">
<!-- Generated by graphviz version 2.40.1 (20161225.0304)
 -->
<!-- Title: %3 Pages: 1 -->
<svg width="106pt" height="266pt"
 viewBox="0.00 0.00 105.98 266.00" xmlns="http://www.w3.org/2000/svg" xmlns:xlink="http://www.w3.org/1999/xlink">
<g id="graph0" class="graph" transform="scale(1 1) rotate(0) translate(4 262)">
<title>%3</title>
<polygon fill="#ffffff" stroke="transparent" points="-4,4 -4,-262 101.9785,-262 101.9785,4 -4,4"/>
<!-- 4301660960 -->
<g id="node1" class="node">
<title>4301660960</title>
<polygon fill="#d3d3d3" stroke="#000000" points="97.9561,-20 .0225,-20 .0225,0 97.9561,0 97.9561,-20"/>
<text text-anchor="middle" x="48.9893" y="-6.4" font-family="Times,serif" font-size="12.00" fill="#000000">MeanBackward1</text>
</g>
<!-- 4301661016 -->
<g id="node2" class="node">
<title>4301661016</title>
<polygon fill="#d3d3d3" stroke="#000000" points="91.1384,-76 6.8401,-76 6.8401,-56 91.1384,-56 91.1384,-76"/>
<text text-anchor="middle" x="48.9893" y="-62.4" font-family="Times,serif" font-size="12.00" fill="#000000">MulBackward</text>
</g>
<!-- 4301661016&#45;&gt;4301660960 -->
<g id="edge1" class="edge">
<title>4301661016&#45;&gt;4301660960</title>
<path fill="none" stroke="#000000" d="M48.9893,-55.9883C48.9893,-48.9098 48.9893,-39.1714 48.9893,-30.4779"/>
<polygon fill="#000000" stroke="#000000" points="52.4894,-30.3038 48.9893,-20.3039 45.4894,-30.3039 52.4894,-30.3038"/>
</g>
<!-- 4301888648 -->
<g id="node3" class="node">
<title>4301888648</title>
<polygon fill="#d3d3d3" stroke="#000000" points="97.9678,-132 .0107,-132 .0107,-112 97.9678,-112 97.9678,-132"/>
<text text-anchor="middle" x="48.9893" y="-118.4" font-family="Times,serif" font-size="12.00" fill="#000000">ThMulBackward</text>
</g>
<!-- 4301888648&#45;&gt;4301661016 -->
<g id="edge2" class="edge">
<title>4301888648&#45;&gt;4301661016</title>
<path fill="none" stroke="#000000" d="M48.9893,-111.9883C48.9893,-104.9098 48.9893,-95.1714 48.9893,-86.4779"/>
<polygon fill="#000000" stroke="#000000" points="52.4894,-86.3038 48.9893,-76.3039 45.4894,-86.3039 52.4894,-86.3038"/>
</g>
<!-- 4370635856 -->
<g id="node4" class="node">
<title>4370635856</title>
<polygon fill="#d3d3d3" stroke="#000000" points="91.8004,-188 6.1781,-188 6.1781,-168 91.8004,-168 91.8004,-188"/>
<text text-anchor="middle" x="48.9893" y="-174.4" font-family="Times,serif" font-size="12.00" fill="#000000">AddBackward</text>
</g>
<!-- 4370635856&#45;&gt;4301888648 -->
<g id="edge3" class="edge">
<title>4370635856&#45;&gt;4301888648</title>
<path fill="none" stroke="#000000" d="M43.6734,-167.9883C42.3417,-160.9098 41.9374,-151.1714 42.4606,-142.4779"/>
<polygon fill="#000000" stroke="#000000" points="45.9652,-142.6357 43.6192,-132.3039 39.0101,-141.8436 45.9652,-142.6357"/>
</g>
<!-- 4370635856&#45;&gt;4301888648 -->
<g id="edge5" class="edge">
<title>4370635856&#45;&gt;4301888648</title>
<path fill="none" stroke="#000000" d="M54.3051,-167.9883C55.6368,-160.9098 56.0411,-151.1714 55.5179,-142.4779"/>
<polygon fill="#000000" stroke="#000000" points="58.9684,-141.8436 54.3593,-132.3039 52.0134,-142.6357 58.9684,-141.8436"/>
</g>
<!-- 4483354296 -->
<g id="node5" class="node">
<title>4483354296</title>
<polygon fill="#add8e6" stroke="#000000" points="75.9893,-258 21.9893,-258 21.9893,-224 75.9893,-224 75.9893,-258"/>
<text text-anchor="middle" x="48.9893" y="-230.4" font-family="Times,serif" font-size="12.00" fill="#000000"> (1, 5)</text>
</g>
<!-- 4483354296&#45;&gt;4370635856 -->
<g id="edge4" class="edge">
<title>4483354296&#45;&gt;4370635856</title>
<path fill="none" stroke="#000000" d="M48.9893,-223.785C48.9893,-215.9703 48.9893,-206.6675 48.9893,-198.4951"/>
<polygon fill="#000000" stroke="#000000" points="52.4894,-198.2974 48.9893,-188.2974 45.4894,-198.2974 52.4894,-198.2974"/>
</g>
</g>
</svg>
